<svg xmlns="http://www.w3.org/2000/svg" width="860" height="526"><path d="M0 0 C1.02746841 -0.00692368 2.05493683 -0.01384735 3.11354065 -0.02098083 C6.40646226 -0.03815486 9.69922324 -0.04456617 12.9921875 -0.046875 C14.11323883 -0.04821442 15.23429016 -0.04955383 16.38931274 -0.05093384 C32.411845 -0.04677158 48.06568274 0.29629185 63.8671875 3.203125 C64.60211426 3.33122559 65.33704102 3.45932617 66.09423828 3.59130859 C70.38095731 4.34639495 74.62318453 5.23926701 78.8671875 6.203125 C80.00285156 6.43902344 81.13851563 6.67492187 82.30859375 6.91796875 C88.30075451 8.20249916 93.81842054 9.82217721 99.453125 12.2265625 C102.78933798 13.57616322 106.20505852 14.54724767 109.66015625 15.54296875 C112.13056915 16.28190641 114.50147663 17.17798362 116.8671875 18.203125 C116.8671875 18.863125 116.8671875 19.523125 116.8671875 20.203125 C117.56585937 20.14511719 118.26453125 20.08710938 118.984375 20.02734375 C122.55526725 20.24508108 124.81986619 21.38176027 127.9921875 23.015625 C129.02601563 23.53769531 130.05984375 24.05976563 131.125 24.59765625 C133.49338073 25.98427232 134.99132842 27.26318378 136.8671875 29.203125 C137.5271875 29.203125 138.1871875 29.203125 138.8671875 29.203125 C139.8671875 30.203125 140.8671875 31.203125 141.8671875 32.203125 C142.5271875 32.203125 143.1871875 32.203125 143.8671875 32.203125 C145.20195839 33.53501923 146.53504411 34.86860278 147.8671875 36.203125 C149.50180267 37.27453142 151.17040807 38.29566725 152.8671875 39.265625 C158.77851755 42.66283754 163.72674641 46.76006224 168.8671875 51.203125 C169.98906182 52.15946628 171.11145081 53.11520418 172.234375 54.0703125 C185.55005567 65.45874174 198.2382753 77.46118227 210.56640625 89.91015625 C211.38481995 90.73636475 212.20323364 91.56257324 213.04644775 92.41381836 C216.39686538 95.80071505 219.74433539 99.19040117 223.08227539 102.58959961 C249.5568877 129.52053815 279.47030305 152.43635456 318.8203125 153.50390625 C321.25253343 153.5228629 323.68491654 153.52639366 326.1171875 153.515625 C327.39118408 153.51216064 328.66518066 153.50869629 329.9777832 153.50512695 C339.29719372 153.39762499 347.85923323 152.61339143 356.8671875 150.203125 C357.79917969 149.97496094 358.73117187 149.74679688 359.69140625 149.51171875 C365.83102626 147.8663382 371.27267794 145.17834542 376.8671875 142.203125 C384.4671875 138.203125 384.4671875 138.203125 387.8671875 138.203125 C388.1971875 137.543125 388.5271875 136.883125 388.8671875 136.203125 C390.64424729 134.78261814 392.46333659 133.41424179 394.3046875 132.078125 C395.29339844 131.35367188 396.28210938 130.62921875 397.30078125 129.8828125 C399.8671875 128.203125 399.8671875 128.203125 401.8671875 128.203125 C403.22453892 126.89425042 404.55224238 125.55459638 405.8671875 124.203125 C408.36770798 122.09157437 410.88385591 120.00362609 413.421875 117.9375 C422.43363145 110.43488937 430.22146071 102.15497978 437.25097656 92.79882812 C439.32882809 90.05014962 440.96923686 88.13509209 443.8671875 86.203125 C438.9644373 129.35943232 413.8865185 170.98377252 384.8671875 202.203125 C384.25617187 202.86828125 383.64515625 203.5334375 383.015625 204.21875 C346.13749617 242.82308911 290.00104002 257.99803863 238.15966797 259.26953125 C208.49093881 259.85829386 179.50179789 257.04387563 150.8671875 249.203125 C149.3203125 248.78353516 149.3203125 248.78353516 147.7421875 248.35546875 C136.43660943 245.12278002 125.68501277 240.11004852 115.0546875 235.140625 C113.9109668 234.6137207 113.9109668 234.6137207 112.74414062 234.07617188 C112.01517578 233.73521484 111.28621094 233.39425781 110.53515625 233.04296875 C109.87797607 232.73738037 109.2207959 232.43179199 108.54370117 232.11694336 C106.8671875 231.203125 106.8671875 231.203125 104.8671875 229.203125 C103.8771875 228.873125 102.8871875 228.543125 101.8671875 228.203125 C101.2071875 227.543125 100.5471875 226.883125 99.8671875 226.203125 C98.8771875 225.873125 97.8871875 225.543125 96.8671875 225.203125 C96.2071875 224.543125 95.5471875 223.883125 94.8671875 223.203125 C94.2071875 222.873125 93.5471875 222.543125 92.8671875 222.203125 C90.8671875 221.203125 90.8671875 221.203125 88.8671875 219.203125 C86.90430416 217.66962239 85.09688594 216.31797422 82.8671875 215.203125 C82.2071875 214.543125 81.5471875 213.883125 80.8671875 213.203125 C80.2071875 212.873125 79.5471875 212.543125 78.8671875 212.203125 C78.2071875 211.543125 77.5471875 210.883125 76.8671875 210.203125 C73.10020613 206.86214153 73.10020613 206.86214153 68.8671875 204.203125 C67.53385417 202.86979167 66.20052083 201.53645833 64.8671875 200.203125 C64.2071875 199.873125 63.5471875 199.543125 62.8671875 199.203125 C61.90532672 198.07766327 60.97096468 196.9284992 60.0546875 195.765625 C57.52309961 192.72029189 55.60989203 191.55465719 51.8671875 190.203125 C51.57746063 189.6187114 51.28773376 189.03429779 50.98922729 188.43217468 C49.6012379 185.67478824 47.8408837 183.91526792 45.66455078 181.72583008 C44.79669952 180.84844681 43.92884827 179.97106354 43.03469849 179.0670929 C42.08596183 178.11861763 41.13688743 177.17048011 40.1875 176.22265625 C39.21322979 175.24449735 38.23918318 174.2661157 37.26535034 173.28752136 C35.22602961 171.24074949 33.1828901 169.19788283 31.13720703 167.1574707 C28.51702785 164.54309424 25.9084084 161.91751096 23.30275154 159.28867054 C21.29538408 157.26657103 19.28113212 155.2514412 17.26482773 153.23825645 C16.30003545 152.27295102 15.3376026 151.30528138 14.37759781 150.33521461 C13.03512102 148.98039795 11.68208759 147.63606646 10.32861328 146.29223633 C9.56187286 145.52486649 8.79513245 144.75749664 8.00515747 143.96687317 C5.83436432 142.17604706 4.55745626 141.75443976 1.8671875 141.203125 C1.183483 139.87844754 0.51754564 138.54448867 -0.1328125 137.203125 C-1.4481466 136.50161348 -2.78398842 135.83786575 -4.1328125 135.203125 C-5.48713925 133.89112096 -6.82014732 132.55681096 -8.1328125 131.203125 C-9.45611333 130.18988629 -10.79068216 129.1912869 -12.1328125 128.203125 C-13.15761719 127.40841797 -13.15761719 127.40841797 -14.203125 126.59765625 C-15.22019531 125.81455078 -15.22019531 125.81455078 -16.2578125 125.015625 C-17.28261719 124.22091797 -17.28261719 124.22091797 -18.328125 123.41015625 C-20.04802988 122.01780995 -20.04802988 122.01780995 -22.1328125 122.203125 C-22.7928125 121.543125 -23.4528125 120.883125 -24.1328125 120.203125 C-43.72858387 110.07645121 -62.41559654 104.97257644 -84.5078125 104.890625 C-85.57660645 104.88514648 -86.64540039 104.87966797 -87.74658203 104.87402344 C-106.86733067 105.04540397 -124.13497093 110.54336498 -140.72265625 119.8515625 C-144.20521906 121.80450696 -147.77346981 123.56121317 -151.3828125 125.265625 C-153.54019344 126.42136479 -154.94925777 128.01192216 -156.6328125 129.765625 C-158.33898179 131.4007039 -159.87800705 132.10449063 -162.0703125 132.953125 C-164.35296889 134.11272706 -164.35296889 134.11272706 -165.6328125 136.765625 C-167.4577223 139.73110343 -167.94668734 139.4124105 -171.1328125 140.203125 C-172.81477682 141.42880114 -172.81477682 141.42880114 -174.33203125 143.00390625 C-174.90115234 143.56916016 -175.47027344 144.13441406 -176.05664062 144.71679688 C-176.63865234 145.31041016 -177.22066406 145.90402344 -177.8203125 146.515625 C-178.41392578 147.09763672 -179.00753906 147.67964844 -179.61914062 148.27929688 C-180.46702148 149.13297852 -180.46702148 149.13297852 -181.33203125 150.00390625 C-181.84596436 150.52122314 -182.35989746 151.03854004 -182.8894043 151.5715332 C-184.26993211 153.15284065 -184.26993211 153.15284065 -184.62036133 155.27807617 C-185.46857612 158.46443809 -188.48357996 159.43696997 -191.1328125 161.203125 C-191.84728893 163.30645391 -191.84728893 163.30645391 -192.1328125 165.203125 C-193.1228125 165.533125 -194.1128125 165.863125 -195.1328125 166.203125 C-195.3803125 167.193125 -195.3803125 167.193125 -195.6328125 168.203125 C-195.8803125 169.193125 -195.8803125 169.193125 -196.1328125 170.203125 C-197.1228125 170.533125 -198.1128125 170.863125 -199.1328125 171.203125 C-200.1228125 172.193125 -200.1228125 172.193125 -201.1328125 173.203125 C-202.32450848 169.62803707 -201.85324592 168.50498315 -200.76171875 164.9609375 C-200.43896973 163.90543701 -200.1162207 162.84993652 -199.78369141 161.76245117 C-199.42452637 160.62912354 -199.06536133 159.4957959 -198.6953125 158.328125 C-198.32841309 157.15934814 -197.96151367 155.99057129 -197.58349609 154.78637695 C-187.9798244 124.62247184 -175.3889168 95.79712873 -155.1328125 71.203125 C-154.67825684 70.64173828 -154.22370117 70.08035156 -153.75537109 69.50195312 C-142.53958839 55.696729 -129.46274875 42.40108675 -114.1328125 33.203125 C-113.4315625 32.666875 -112.7303125 32.130625 -112.0078125 31.578125 C-110.1328125 30.203125 -110.1328125 30.203125 -107.1328125 29.203125 C-106.4728125 28.543125 -105.8128125 27.883125 -105.1328125 27.203125 C-104.3284375 26.89375 -103.5240625 26.584375 -102.6953125 26.265625 C-100.14613694 25.41024747 -100.14613694 25.41024747 -98.7578125 23.765625 C-95.16953684 20.31535994 -90.98433762 19.203125 -86.1328125 19.203125 C-85.8028125 18.543125 -85.4728125 17.883125 -85.1328125 17.203125 C-60.45867559 4.39047794 -27.39499606 0.12546227 0 0 Z " fill="#38BBF8" transform="translate(416.1328125,-0.203125)"></path><path d="M0 0 C1.47076996 0.00273422 1.47076996 0.00273422 2.97125244 0.00552368 C33.01749067 0.09917604 64.52979791 2.54144889 92.55859375 14.296875 C95.05408121 15.3090852 97.56965596 16.15207287 100.125 17 C109.91263639 20.50058526 119.21810376 25.88708089 128.0625 31.3125 C130.43128989 32.75688408 132.75408527 34.16269856 135.25 35.375 C137.0625 36.3125 137.0625 36.3125 139.0625 38.3125 C141.02538334 39.84600261 142.83280156 41.19765078 145.0625 42.3125 C146.73333819 43.64060215 148.39979713 44.97422696 150.0625 46.3125 C151.0525 46.9725 152.0425 47.6325 153.0625 48.3125 C153.7225 48.9725 154.3825 49.6325 155.0625 50.3125 C155.7225 50.6425 156.3825 50.9725 157.0625 51.3125 C158.39583333 52.64583333 159.72916667 53.97916667 161.0625 55.3125 C161.7225 55.6425 162.3825 55.9725 163.0625 56.3125 C163.866875 57.1375 164.67125 57.9625 165.5 58.8125 C167.87370237 61.49186637 167.87370237 61.49186637 171.0625 62.3125 C171.75377023 63.63324513 172.41648193 64.9690407 173.0625 66.3125 C174.3221923 67.75771584 175.63849455 69.15440695 176.98974609 70.5144043 C177.7975351 71.33172531 178.6053241 72.14904633 179.43759155 72.99113464 C180.7485228 74.30069878 180.7485228 74.30069878 182.0859375 75.63671875 C182.98365875 76.53872513 183.88138 77.44073151 184.80630493 78.37007141 C186.70528071 80.27478904 188.60627264 82.177219 190.51074219 84.07641602 C192.94932413 86.50919496 195.37633212 88.95316869 197.80039024 91.40040874 C200.11780985 93.73610549 202.44621982 96.06079063 204.7734375 98.38671875 C205.6433432 99.2658342 206.5132489 100.14494965 207.40951538 101.05070496 C208.2236087 101.85856949 209.03770203 102.66643402 209.87646484 103.4987793 C210.58991058 104.21285446 211.30335632 104.92692963 212.03842163 105.66264343 C214.1382112 107.37421333 215.45654164 107.79367544 218.0625 108.3125 C219.4375 109.9375 219.4375 109.9375 221.0625 112.3125 C224.74473622 117.03331567 228.74352481 120.91339365 233.3125 124.75 C233.84415771 125.19939941 234.37581543 125.64879883 234.92358398 126.11181641 C237.63648076 128.57014279 237.63648076 128.57014279 241.0625 129.3125 C242.08354551 130.29100195 243.0831121 131.29230427 244.0625 132.3125 C244.7225 132.6425 245.3825 132.9725 246.0625 133.3125 C246.701875 133.8075 247.34125 134.3025 248 134.8125 C250.08550735 136.48808237 250.08550735 136.48808237 253.0625 137.3125 C253.7225 137.9725 254.3825 138.6325 255.0625 139.3125 C282.02527147 153.66132074 313.20271141 158.2799095 343.03125 150.9375 C346.27949853 149.93803891 349.40387879 148.68825669 352.53515625 147.37109375 C354.17524248 146.68413337 355.82886715 146.02834139 357.49609375 145.41015625 C363.61386882 143.1294497 369.03033262 140.11573669 374.59375 136.703125 C377.0625 135.3125 377.0625 135.3125 379.0625 135.3125 C379.7225 134.6525 380.3825 133.9925 381.0625 133.3125 C381.7225 132.6525 382.3825 131.9925 383.0625 131.3125 C383.7225 131.3125 384.3825 131.3125 385.0625 131.3125 C385.7225 130.6525 386.3825 129.9925 387.0625 129.3125 C388.39583333 128.3125 389.72916667 127.3125 391.0625 126.3125 C393.11520463 124.47061388 393.11520463 124.47061388 394.0625 122.3125 C394.660625 122.209375 395.25875 122.10625 395.875 122 C399.08530451 120.99104716 400.07523289 119.0011555 402.0625 116.3125 C405.1452471 112.5132225 408.05505709 109.15649174 412.0625 106.3125 C415.60576108 103.05650891 415.60576108 103.05650891 418.1875 99.0625 C419.0625 97.3125 419.0625 97.3125 422.0625 96.3125 C422.18625 95.69375 422.31 95.075 422.4375 94.4375 C423.34782972 91.34237897 425.3280227 90.84647507 428.0625 89.3125 C428.7225 88.3225 429.3825 87.3325 430.0625 86.3125 C430.7225 86.3125 431.3825 86.3125 432.0625 86.3125 C422.35729989 129.73050049 402.81967959 170.00146587 372.0625 202.3125 C371.37027344 203.06917969 370.67804687 203.82585937 369.96484375 204.60546875 C361.64645753 213.40468655 351.49277295 221.17022815 341.0625 227.3125 C340.4025 227.9725 339.7425 228.6325 339.0625 229.3125 C336.38704913 231.02753261 334.0867787 232.3044071 331.0625 233.3125 C330.44375 233.993125 330.44375 233.993125 329.8125 234.6875 C326.11538468 238.12053566 322.00694528 239.3125 317.0625 239.3125 C316.7325 239.9725 316.4025 240.6325 316.0625 241.3125 C313.0625 242.3125 313.0625 242.3125 310.0625 242.3125 C309.7325 242.9725 309.4025 243.6325 309.0625 244.3125 C307.08984296 245.03756888 305.08199688 245.66799222 303.0625 246.25 C299.29330151 247.35427329 295.56378822 248.46509831 291.875 249.8125 C243.47695197 265.91600965 178.99216262 264.34334459 131.0625 247.3125 C130.08410156 246.97992188 129.10570312 246.64734375 128.09765625 246.3046875 C127.09605469 245.95664062 126.09445312 245.60859375 125.0625 245.25 C124.134375 244.92902344 123.20625 244.60804688 122.25 244.27734375 C120.0625 243.3125 120.0625 243.3125 119.0625 241.3125 C117.886875 241.3434375 117.886875 241.3434375 116.6875 241.375 C114.0625 241.3125 114.0625 241.3125 112.0625 240.3125 C112.0625 239.6525 112.0625 238.9925 112.0625 238.3125 C110.515625 238.1578125 110.515625 238.1578125 108.9375 238 C103.45287796 237.0269219 99.94372817 235.19372817 96.0625 231.3125 C95.4025 231.1475 94.7425 230.9825 94.0625 230.8125 C91.6245188 230.2030047 90.7686684 229.09622151 89.0625 227.3125 C88.4025 227.3125 87.7425 227.3125 87.0625 227.3125 C86.0625 226.3125 85.0625 225.3125 84.0625 224.3125 C83.4025 224.3125 82.7425 224.3125 82.0625 224.3125 C81.4025 223.6525 80.7425 222.9925 80.0625 222.3125 C79.464375 222.044375 78.86625 221.77625 78.25 221.5 C76.0625 220.3125 76.0625 220.3125 73.83984375 218.0625 C70.8728468 215.12471399 67.75207386 212.64873138 64.4375 210.125 C58.97528696 205.90295793 53.80915136 201.50712667 48.7578125 196.796875 C46.70162871 194.90160994 44.6224458 193.07611633 42.49951172 191.25878906 C37.57096111 186.95126226 32.97921014 182.33653798 28.375 177.6875 C27.02208862 176.32890869 27.02208862 176.32890869 25.6418457 174.94287109 C22.29644556 171.58328694 18.95561608 168.21918738 15.6151123 164.85473633 C12.329582 161.54615649 9.04016209 158.24147519 5.75 154.9375 C4.89768799 154.07688965 4.04537598 153.2162793 3.16723633 152.32958984 C-1.7000407 147.44257216 -6.67629198 142.77255919 -11.9375 138.3125 C-12.54849045 137.79022827 -13.1594809 137.26795654 -13.78898621 136.7298584 C-41.11216294 113.45374617 -72.11066987 103.46767127 -107.9375 105.3125 C-120.2475252 106.53106302 -132.76514932 110.03102513 -143.9375 115.3125 C-144.82824219 115.73273438 -145.71898437 116.15296875 -146.63671875 116.5859375 C-152.93577401 119.63464798 -158.83349841 123.01864872 -164.66015625 126.89453125 C-166.9375 128.3125 -166.9375 128.3125 -169.9375 129.3125 C-170.96047922 130.28898017 -171.95654252 131.29381338 -172.9375 132.3125 C-173.72125 132.93125 -174.505 133.55 -175.3125 134.1875 C-177.99685665 136.27562724 -177.99685665 136.27562724 -180.375 138.8125 C-182.9375 141.3125 -182.9375 141.3125 -185.8125 143.1875 C-193.5714339 148.46357505 -199.13533388 156.04494038 -204.9375 163.3125 C-205.71351563 164.27929688 -206.48953125 165.24609375 -207.2890625 166.2421875 C-209.17592592 168.59576625 -211.05870077 170.95248244 -212.9375 173.3125 C-214.35281466 169.49573843 -213.50703438 166.82956146 -212.41796875 162.984375 C-212.06033447 161.72141602 -211.7027002 160.45845703 -211.33422852 159.15722656 C-210.9327493 157.79184712 -210.52963445 156.42694771 -210.125 155.0625 C-209.92220428 154.37087769 -209.71940857 153.67925537 -209.51046753 152.9666748 C-199.72874286 119.79482619 -183.90846283 84.86154149 -158.34375 60.68359375 C-156.76057989 59.20323099 -156.76057989 59.20323099 -155 56.8125 C-152.00857367 53.18652869 -148.55382461 50.30357222 -144.9375 47.3125 C-143.92429687 46.47332031 -142.91109375 45.63414062 -141.8671875 44.76953125 C-101.50257897 11.90162715 -51.23330716 -0.19873065 0 0 Z " fill="#38BBF8" transform="translate(213.9375,257.6875)"></path><path d="M0 0 C1.74991334 -0.02715383 3.49994945 -0.04646551 5.25 -0.0625 C6.71179688 -0.07990234 6.71179688 -0.07990234 8.203125 -0.09765625 C10.69332466 -0.01070794 12.62546938 0.31466799 15 1 C22.29227915 2.57206742 29.63704658 3.81079447 37 5 C34 7 34 7 31.72924805 6.77978516 C30.85308838 6.57659668 29.97692871 6.3734082 29.07421875 6.1640625 C22.97151953 4.91114386 17.02798878 4.56636848 10.8125 4.375 C9.76513672 4.33632812 8.71777344 4.29765625 7.63867188 4.2578125 C5.09260887 4.16480563 2.54653037 4.07896716 0 4 C-0.33 3.34 -0.66 2.68 -1 2 C-0.67 1.34 -0.34 0.68 0 0 Z " fill="#4AB3E2" transform="translate(322,100)"></path><path d="M0 0 C0.76876465 0.14219971 1.5375293 0.28439941 2.32958984 0.4309082 C10.82705683 1.88537792 19.01574249 2.27359258 27.625 2.1875 C29.47351563 2.1865332 29.47351563 2.1865332 31.359375 2.18554688 C38.62442929 2.1508412 45.77918582 1.80591928 53 1 C53 1.66 53 2.32 53 3 C47.07060878 3.86203079 41.3421276 4.13417439 35.35546875 4.09765625 C34.46386551 4.0962413 33.57226227 4.09482635 32.65364075 4.09336853 C29.83155825 4.08781669 27.00955806 4.07528259 24.1875 4.0625 C22.27408971 4.05747793 20.36067814 4.05291626 18.44726562 4.04882812 C14.95725892 4.04068532 11.46728235 4.03004197 7.97729492 4.01586914 C5.65154244 4.00658954 3.32577099 4 1 4 C0.67 2.68 0.34 1.36 0 0 Z " fill="#4AB2DD" transform="translate(715,151)"></path><path d="M0 0 C0.66 0 1.32 0 2 0 C2 0.66 2 1.32 2 2 C3.98 2 5.96 2 8 2 C8 1.34 8 0.68 8 0 C11.63 0.33 15.26 0.66 19 1 C19 1.33 19 1.66 19 2 C12.56971459 3.32388229 6.5705166 4.24794402 0 4 C0 2.68 0 1.36 0 0 Z " fill="#52AEDC" transform="translate(682,252)"></path><path d="M0 0 C3.2586636 1.4264578 5.4024854 3.16704162 7.890625 5.6953125 C8.95410156 6.76845703 8.95410156 6.76845703 10.0390625 7.86328125 C11.13347656 8.98283203 11.13347656 8.98283203 12.25 10.125 C12.99507813 10.87910156 13.74015625 11.63320313 14.5078125 12.41015625 C16.3431342 14.26900772 18.1736191 16.13237005 20 18 C19.67 18.66 19.34 19.32 19 20 C15.8293305 16.85817898 12.66414446 13.71089125 9.5 10.5625 C8.59378906 9.66466797 7.68757813 8.76683594 6.75390625 7.84179688 C5.89667969 6.98779297 5.03945313 6.13378906 4.15625 5.25390625 C3.36025391 4.46314697 2.56425781 3.6723877 1.74414062 2.85766602 C0 1 0 1 0 0 Z " fill="#477DC5" transform="translate(397,333)"></path><path d="M0 0 C0.66 0 1.32 0 2 0 C1.34 2.97 0.68 5.94 0 9 C-0.94875 8.814375 -1.8975 8.62875 -2.875 8.4375 C-5.89868793 7.71313368 -5.89868793 7.71313368 -8 9 C-6.59645587 5.49113968 -5.35634177 4.5732852 -2 3 C-1.34 2.01 -0.68 1.02 0 0 Z " fill="#3CB5EA" transform="translate(644,344)"></path><path d="M0 0 C-1 1 -1 1 -4.4375 1.375 C-6.2009375 1.684375 -6.2009375 1.684375 -8 2 C-8.99 3.485 -8.99 3.485 -10 5 C-12.4375 4.625 -12.4375 4.625 -15 4 C-15.33 3.34 -15.66 2.68 -16 2 C-14.08654673 1.46748234 -12.1690705 0.94940517 -10.25 0.4375 C-9.18265625 0.14746094 -8.1153125 -0.14257812 -7.015625 -0.44140625 C-4.15664073 -0.97098494 -2.68402617 -0.98370862 0 0 Z " fill="#47B4E1" transform="translate(165,263)"></path><path d="M0 0 C3.72301503 -0.47730962 4.79191085 -0.1387261 8 2 C8 2.66 8 3.32 8 4 C4.7 3.67 1.4 3.34 -2 3 C-1.34 2.01 -0.68 1.02 0 0 Z " fill="#56AEDF" transform="translate(370,508)"></path><path d="M0 0 C3.63 0 7.26 0 11 0 C11 0.66 11 1.32 11 2 C7.37 2.33 3.74 2.66 0 3 C0 2.01 0 1.02 0 0 Z " fill="#2DBDFD" transform="translate(607,254)"></path><path d="M0 0 C0 0.99 0 1.98 0 3 C-0.66 2.34 -1.32 1.68 -2 1 C-1.34 0.67 -0.68 0.34 0 0 Z M-3 2 C-2.34 2.66 -1.68 3.32 -1 4 C-3.3125 6.0625 -3.3125 6.0625 -6 8 C-6.99 7.67 -7.98 7.34 -9 7 C-7.62308038 4.24616077 -5.63279958 3.48516899 -3 2 Z " fill="#30B1E5" transform="translate(589,394)"></path><path d="M0 0 C1.5 1.3125 1.5 1.3125 3 3 C3 3.99 3 4.98 3 6 C-1.455 5.01 -1.455 5.01 -6 4 C-6 3.67 -6 3.34 -6 3 C-4.35 3 -2.7 3 -1 3 C-0.67 2.01 -0.34 1.02 0 0 Z " fill="#4DB4F1" transform="translate(153,362)"></path><path d="M0 0 C-0.33 1.32 -0.66 2.64 -1 4 C-2.65 3.67 -4.3 3.34 -6 3 C-6 2.01 -6 1.02 -6 0 C-3 -1 -3 -1 0 0 Z " fill="#3BBEE4" transform="translate(606,251)"></path><path d="M0 0 C0.33 0.66 0.66 1.32 1 2 C-1.66666667 3.33333333 -4.33333333 4.66666667 -7 6 C-7.66 5.67 -8.32 5.34 -9 5 C-7.694761 2.38952199 -6.64173426 2.31933577 -3.9375 1.375 C-3.20402344 1.11460938 -2.47054688 0.85421875 -1.71484375 0.5859375 C-1.14894531 0.39257812 -0.58304687 0.19921875 0 0 Z " fill="#2CBDEE" transform="translate(339,14)"></path><path d="M0 0 C0.6875 1.8125 0.6875 1.8125 1 4 C-0.4375 5.75 -0.4375 5.75 -2 7 C-2.99 6.67 -3.98 6.34 -5 6 C-3.74821404 3.49642808 -2.00018842 1.93566621 0 0 Z " fill="#40B6EE" transform="translate(821,124)"></path><path d="M0 0 C2.475 0.99 2.475 0.99 5 2 C5 2.66 5 3.32 5 4 C3.35 4.66 1.7 5.32 0 6 C-1 3 -1 3 0 0 Z " fill="#33B2EF" transform="translate(471,398)"></path><path d="M0 0 C0.33 0.66 0.66 1.32 1 2 C0.67 2.99 0.34 3.98 0 5 C-1.65 4.67 -3.3 4.34 -5 4 C-5 3.34 -5 2.68 -5 2 C-3.35 1.34 -1.7 0.68 0 0 Z " fill="#3FAFDF" transform="translate(560,407)"></path><path d="M0 0 C1.65 0 3.3 0 5 0 C3.37660195 1.70884005 1.70680947 3.37446717 0 5 C-0.66 5 -1.32 5 -2 5 C-1.34 3.35 -0.68 1.7 0 0 Z " fill="#41B3EA" transform="translate(772,221)"></path><path d="M0 0 C0 3 0 3 0 3 Z " fill="#53A4D2" transform="translate(641,345)"></path><path d="" fill="#3894DA" transform="translate(0,0)"></path><path d="" fill="#21A4CB" transform="translate(0,0)"></path><path d="" fill="#3A98D8" transform="translate(0,0)"></path><path d="" fill="#23A7CF" transform="translate(0,0)"></path><path d="" fill="#267EAD" transform="translate(0,0)"></path><path d="" fill="#0CEDFB" transform="translate(0,0)"></path><path d="" fill="#33EAF0" transform="translate(0,0)"></path><path d="" fill="#2C7EB1" transform="translate(0,0)"></path><path d="" fill="#15ECFC" transform="translate(0,0)"></path><path d="" fill="#2AC6E5" transform="translate(0,0)"></path><path d="" fill="#3B9BCD" transform="translate(0,0)"></path><path d="" fill="#17E7FE" transform="translate(0,0)"></path><path d="" fill="#179FEB" transform="translate(0,0)"></path><path d="" fill="#2D78BB" transform="translate(0,0)"></path><path d="" fill="#2487C2" transform="translate(0,0)"></path><path d="" fill="#3082C2" transform="translate(0,0)"></path><path d="" fill="#0FF4F9" transform="translate(0,0)"></path><path d="" fill="#0E51B8" transform="translate(0,0)"></path><path d="" fill="#2EEAFD" transform="translate(0,0)"></path><path d="" fill="#2E81C4" transform="translate(0,0)"></path><path d="" fill="#3184C9" transform="translate(0,0)"></path><path d="" fill="#2FE6FE" transform="translate(0,0)"></path><path d="" fill="#2BB2E4" transform="translate(0,0)"></path><path d="" fill="#27BBEA" transform="translate(0,0)"></path><path d="" fill="#16AFF7" transform="translate(0,0)"></path><path d="" fill="#104992" transform="translate(0,0)"></path><path d="" fill="#26AECE" transform="translate(0,0)"></path><path d="" fill="#2D82C6" transform="translate(0,0)"></path><path d="" fill="#11BDF4" transform="translate(0,0)"></path><path d="" fill="#37A5E5" transform="translate(0,0)"></path><path d="" fill="#2DE9F8" transform="translate(0,0)"></path><path d="" fill="#28BBEB" transform="translate(0,0)"></path><path d="" fill="#2CB0E2" transform="translate(0,0)"></path><path d="" fill="#0AB1EE" transform="translate(0,0)"></path><path d="" fill="#2DABE7" transform="translate(0,0)"></path><path d="" fill="#16BBF1" transform="translate(0,0)"></path><path d="" fill="#2BB8EB" transform="translate(0,0)"></path><path d="" fill="#20B6EE" transform="translate(0,0)"></path><path d="" fill="#24BAEE" transform="translate(0,0)"></path><path d="" fill="#3AE6F1" transform="translate(0,0)"></path><path d="" fill="#054EBE" transform="translate(0,0)"></path><path d="" fill="#26AFE8" transform="translate(0,0)"></path><path d="" fill="#36738D" transform="translate(0,0)"></path><path d="" fill="#0B50C1" transform="translate(0,0)"></path><path d="" fill="#30B7E4" transform="translate(0,0)"></path><path d="" fill="#23F0FC" transform="translate(0,0)"></path><path d="" fill="#2CECF0" transform="translate(0,0)"></path><path d="" fill="#18DDEC" transform="translate(0,0)"></path><path d="" fill="#2AA6AA" transform="translate(0,0)"></path><path d="" fill="#34ABBC" transform="translate(0,0)"></path><path d="" fill="#0F4BBC" transform="translate(0,0)"></path><path d="" fill="#179DD1" transform="translate(0,0)"></path><path d="" fill="#237FD1" transform="translate(0,0)"></path><path d="" fill="#0455D2" transform="translate(0,0)"></path><path d="" fill="#0F97D1" transform="translate(0,0)"></path><path d="" fill="#28E7F7" transform="translate(0,0)"></path><path d="" fill="#1FE0FF" transform="translate(0,0)"></path><path d="" fill="#0021D8" transform="translate(0,0)"></path><path d="" fill="#002F8C" transform="translate(0,0)"></path><path d="" fill="#39E1FD" transform="translate(0,0)"></path><path d="" fill="#6FC3E2" transform="translate(0,0)"></path><path d="" fill="#002746" transform="translate(0,0)"></path><path d="" fill="#32DCE0" transform="translate(0,0)"></path><path d="" fill="#30EFEC" transform="translate(0,0)"></path><path d="" fill="#74AECF" transform="translate(0,0)"></path><path d="" fill="#0010AE" transform="translate(0,0)"></path><path d="" fill="#31D7DA" transform="translate(0,0)"></path><path d="" fill="#34EBF4" transform="translate(0,0)"></path><path d="" fill="#1CE5F8" transform="translate(0,0)"></path><path d="" fill="#003A67" transform="translate(0,0)"></path><path d="" fill="#19D9EE" transform="translate(0,0)"></path><path d="" fill="#0023B6" transform="translate(0,0)"></path><path d="" fill="#5AC7E4" transform="translate(0,0)"></path><path d="" fill="#33E5F2" transform="translate(0,0)"></path><path d="" fill="#3DDFE1" transform="translate(0,0)"></path><path d="" fill="#59CBF4" transform="translate(0,0)"></path><path d="" fill="#29D7EC" transform="translate(0,0)"></path><path d="" fill="#13DDF0" transform="translate(0,0)"></path><path d="" fill="#62C2FF" transform="translate(0,0)"></path><path d="" fill="#00358C" transform="translate(0,0)"></path><path d="" fill="#2BDBF3" transform="translate(0,0)"></path><path d="" fill="#1FDDE4" transform="translate(0,0)"></path><path d="" fill="#1CE8FE" transform="translate(0,0)"></path><path d="" fill="#37DFFC" transform="translate(0,0)"></path><path d="" fill="#50DAF9" transform="translate(0,0)"></path><path d="" fill="#21ECFF" transform="translate(0,0)"></path><path d="" fill="#23EBFF" transform="translate(0,0)"></path><path d="" fill="#0493CD" transform="translate(0,0)"></path><path d="" fill="#4AC8FF" transform="translate(0,0)"></path><path d="" fill="#0181DE" transform="translate(0,0)"></path><path d="" fill="#0011A6" transform="translate(0,0)"></path><path d="" fill="#10A1DD" transform="translate(0,0)"></path><path d="" fill="#3EE6F8" transform="translate(0,0)"></path><path d="" fill="#1AE2FF" transform="translate(0,0)"></path><path d="" fill="#2BE2ED" transform="translate(0,0)"></path><path d="" fill="#3DE6FF" transform="translate(0,0)"></path><path d="" fill="#5CC5FF" transform="translate(0,0)"></path><path d="" fill="#1ADCFA" transform="translate(0,0)"></path><path d="" fill="#002D92" transform="translate(0,0)"></path><path d="" fill="#36C8FF" transform="translate(0,0)"></path><path d="" fill="#1098F0" transform="translate(0,0)"></path><path d="" fill="#0022CE" transform="translate(0,0)"></path><path d="" fill="#0F89E0" transform="translate(0,0)"></path><path d="" fill="#51CFFF" transform="translate(0,0)"></path><path d="" fill="#1A93F7" transform="translate(0,0)"></path><path d="" fill="#28ECFF" transform="translate(0,0)"></path><path d="" fill="#0EA4DD" transform="translate(0,0)"></path><path d="" fill="#34E3FF" transform="translate(0,0)"></path><path d="" fill="#12E1FF" transform="translate(0,0)"></path><path d="" fill="#23F2FE" transform="translate(0,0)"></path><path d="" fill="#34E7FF" transform="translate(0,0)"></path><path d="" fill="#002C46" transform="translate(0,0)"></path><path d="" fill="#22D5FF" transform="translate(0,0)"></path><path d="" fill="#0015A9" transform="translate(0,0)"></path><path d="" fill="#001AB4" transform="translate(0,0)"></path><path d="" fill="#0026AA" transform="translate(0,0)"></path><path d="" fill="#36E4F9" transform="translate(0,0)"></path><path d="" fill="#2A77EF" transform="translate(0,0)"></path><path d="" fill="#2BEAEE" transform="translate(0,0)"></path><path d="" fill="#1B82C6" transform="translate(0,0)"></path><path d="" fill="#25EAE3" transform="translate(0,0)"></path><path d="" fill="#5CC0FF" transform="translate(0,0)"></path><path d="" fill="#27EBE6" transform="translate(0,0)"></path><path d="" fill="#0017BC" transform="translate(0,0)"></path><path d="" fill="#22E2EF" transform="translate(0,0)"></path><path d="" fill="#22E2EF" transform="translate(0,0)"></path><path d="" fill="#61CEFF" transform="translate(0,0)"></path><path d="" fill="#2EF2EF" transform="translate(0,0)"></path><path d="" fill="#0099F1" transform="translate(0,0)"></path><path d="" fill="#2FF1F1" transform="translate(0,0)"></path><path d="" fill="#3BE6FF" transform="translate(0,0)"></path><path d="" fill="#37E6F6" transform="translate(0,0)"></path><path d="" fill="#38E5F6" transform="translate(0,0)"></path><path d="" fill="#52D4FF" transform="translate(0,0)"></path><path d="" fill="#27E1E4" transform="translate(0,0)"></path><path d="" fill="#048AC6" transform="translate(0,0)"></path><path d="" fill="#26E3E2" transform="translate(0,0)"></path><path d="" fill="#38EFF8" transform="translate(0,0)"></path><path d="" fill="#25DDEC" transform="translate(0,0)"></path><path d="" fill="#24DCEB" transform="translate(0,0)"></path><path d="" fill="#0093B8" transform="translate(0,0)"></path><path d="" fill="#30EDED" transform="translate(0,0)"></path><path d="" fill="#1CDAFC" transform="translate(0,0)"></path><path d="" fill="#23E2E1" transform="translate(0,0)"></path><path d="" fill="#2FEBF0" transform="translate(0,0)"></path><path d="" fill="#2DE9EE" transform="translate(0,0)"></path><path d="" fill="#5AB1FF" transform="translate(0,0)"></path><path d="" fill="#24E4DE" transform="translate(0,0)"></path><path d="" fill="#24E2DF" transform="translate(0,0)"></path><path d="" fill="#28E0F0" transform="translate(0,0)"></path><path d="" fill="#25EAFF" transform="translate(0,0)"></path><path d="" fill="#2FE7F7" transform="translate(0,0)"></path><path d="" fill="#2EEBEB" transform="translate(0,0)"></path><path d="" fill="#29E6E8" transform="translate(0,0)"></path><path d="" fill="#33E5EE" transform="translate(0,0)"></path><path d="" fill="#37E6F6" transform="translate(0,0)"></path><path d="" fill="#37E6F6" transform="translate(0,0)"></path><path d="" fill="#0095B3" transform="translate(0,0)"></path><path d="" fill="#27E6E8" transform="translate(0,0)"></path><path d="" fill="#24E8E6" transform="translate(0,0)"></path><path d="" fill="#27E6F3" transform="translate(0,0)"></path><path d="" fill="#2ADFEB" transform="translate(0,0)"></path><path d="" fill="#24E3F0" transform="translate(0,0)"></path><path d="" fill="#1EE3E0" transform="translate(0,0)"></path><path d="" fill="#067EF5" transform="translate(0,0)"></path><path d="" fill="#20E2E0" transform="translate(0,0)"></path><path d="" fill="#30EAF0" transform="translate(0,0)"></path><path d="" fill="#30EAF0" transform="translate(0,0)"></path><path d="" fill="#26E8E2" transform="translate(0,0)"></path><path d="" fill="#29EDE9" transform="translate(0,0)"></path><path d="" fill="#1DDCE9" transform="translate(0,0)"></path><path d="" fill="#1DDCE9" transform="translate(0,0)"></path><path d="" fill="#32E0F7" transform="translate(0,0)"></path><path d="" fill="#29EDEB" transform="translate(0,0)"></path><path d="" fill="#25E6E7" transform="translate(0,0)"></path><path d="" fill="#30ECE8" transform="translate(0,0)"></path><path d="" fill="#35E3F4" transform="translate(0,0)"></path><path d="" fill="#3BDFFA" transform="translate(0,0)"></path><path d="" fill="#1EE2F9" transform="translate(0,0)"></path><path d="" fill="#30E3F6" transform="translate(0,0)"></path><path d="" fill="#5AC0FF" transform="translate(0,0)"></path><path d="" fill="#00337E" transform="translate(0,0)"></path><path d="" fill="#00378B" transform="translate(0,0)"></path><path d="" fill="#001AB9" transform="translate(0,0)"></path><path d="" fill="#37F6FF" transform="translate(0,0)"></path><path d="" fill="#00209A" transform="translate(0,0)"></path><path d="" fill="#0020C2" transform="translate(0,0)"></path><path d="" fill="#28DEE9" transform="translate(0,0)"></path><path d="" fill="#00249E" transform="translate(0,0)"></path><path d="" fill="#0018BF" transform="translate(0,0)"></path><path d="" fill="#58D4FF" transform="translate(0,0)"></path><path d="" fill="#003B61" transform="translate(0,0)"></path><path d="" fill="#23E5F3" transform="translate(0,0)"></path><path d="" fill="#41E2FF" transform="translate(0,0)"></path><path d="" fill="#23E9E8" transform="translate(0,0)"></path><path d="" fill="#20E3FF" transform="translate(0,0)"></path><path d="" fill="#0010AD" transform="translate(0,0)"></path><path d="" fill="#147AD0" transform="translate(0,0)"></path><path d="" fill="#24DEDF" transform="translate(0,0)"></path><path d="" fill="#74C9FE" transform="translate(0,0)"></path><path d="" fill="#000F1D" transform="translate(0,0)"></path><path d="" fill="#23E8FF" transform="translate(0,0)"></path><path d="" fill="#3DE6EF" transform="translate(0,0)"></path><path d="" fill="#54B3EC" transform="translate(0,0)"></path><path d="" fill="#2D86AC" transform="translate(0,0)"></path><path d="" fill="#6FCBFF" transform="translate(0,0)"></path><path d="" fill="#00325B" transform="translate(0,0)"></path><path d="" fill="#50A5DA" transform="translate(0,0)"></path><path d="" fill="#2CA7F9" transform="translate(0,0)"></path><path d="" fill="#18818D" transform="translate(0,0)"></path><path d="" fill="#0582E3" transform="translate(0,0)"></path><path d="" fill="#64C5FF" transform="translate(0,0)"></path><path d="" fill="#4AC1FF" transform="translate(0,0)"></path><path d="" fill="#99EDFF" transform="translate(0,0)"></path><path d="" fill="#32B7EA" transform="translate(0,0)"></path><path d="" fill="#5CB6DC" transform="translate(0,0)"></path><path d="" fill="#0029C8" transform="translate(0,0)"></path><path d="" fill="#37E7E7" transform="translate(0,0)"></path><path d="" fill="#26E0DA" transform="translate(0,0)"></path><path d="" fill="#4AB1E5" transform="translate(0,0)"></path><path d="" fill="#20D8EC" transform="translate(0,0)"></path><path d="" fill="#4DB2E4" transform="translate(0,0)"></path><path d="" fill="#6BF1FF" transform="translate(0,0)"></path><path d="" fill="#54AED2" transform="translate(0,0)"></path><path d="" fill="#4BB2FF" transform="translate(0,0)"></path><path d="" fill="#9DEFFF" transform="translate(0,0)"></path><path d="" fill="#4CB2FB" transform="translate(0,0)"></path><path d="" fill="#1D77CF" transform="translate(0,0)"></path><path d="" fill="#48B3F8" transform="translate(0,0)"></path><path d="" fill="#177AD3" transform="translate(0,0)"></path><path d="" fill="#32C5F3" transform="translate(0,0)"></path><path d="" fill="#1AF1FF" transform="translate(0,0)"></path><path d="" fill="#00A0C6" transform="translate(0,0)"></path><path d="" fill="#08DAF5" transform="translate(0,0)"></path><path d="" fill="#2BE2F4" transform="translate(0,0)"></path><path d="" fill="#6FD1E2" transform="translate(0,0)"></path><path d="" fill="#127DC4" transform="translate(0,0)"></path><path d="" fill="#61A9CC" transform="translate(0,0)"></path><path d="" fill="#4CAAFC" transform="translate(0,0)"></path><path d="" fill="#65A9D4" transform="translate(0,0)"></path><path d="" fill="#58A8EA" transform="translate(0,0)"></path><path d="" fill="#66AEE1" transform="translate(0,0)"></path><path d="" fill="#54ACE7" transform="translate(0,0)"></path><path d="" fill="#60AAE8" transform="translate(0,0)"></path><path d="" fill="#3CABE5" transform="translate(0,0)"></path><path d="" fill="#62ADE6" transform="translate(0,0)"></path><path d="" fill="#63ADDD" transform="translate(0,0)"></path><path d="" fill="#5EACEB" transform="translate(0,0)"></path><path d="" fill="#5EACEB" transform="translate(0,0)"></path><path d="" fill="#5EACEB" transform="translate(0,0)"></path><path d="" fill="#3EBAEE" transform="translate(0,0)"></path><path d="" fill="#5EACEF" transform="translate(0,0)"></path><path d="" fill="#3BC1F1" transform="translate(0,0)"></path><path d="" fill="#63ABE5" transform="translate(0,0)"></path><path d="" fill="#4BB1D1" transform="translate(0,0)"></path><path d="" fill="#0117A6" transform="translate(0,0)"></path><path d="" fill="#84BDE7" transform="translate(0,0)"></path><path d="" fill="#59B2DB" transform="translate(0,0)"></path><path d="" fill="#7AE8FF" transform="translate(0,0)"></path><path d="" fill="#44BAE7" transform="translate(0,0)"></path><path d="" fill="#44B9EB" transform="translate(0,0)"></path><path d="" fill="#46B9EB" transform="translate(0,0)"></path><path d="" fill="#4BB5EF" transform="translate(0,0)"></path><path d="" fill="#47B7EF" transform="translate(0,0)"></path><path d="" fill="#51B3E9" transform="translate(0,0)"></path><path d="" fill="#56B1E7" transform="translate(0,0)"></path><path d="" fill="#47D1FF" transform="translate(0,0)"></path><path d="" fill="#0093B4" transform="translate(0,0)"></path><path d="" fill="#23E7E7" transform="translate(0,0)"></path><path d="" fill="#78E6FF" transform="translate(0,0)"></path><path d="" fill="#38BBD1" transform="translate(0,0)"></path><path d="" fill="#2CC4E2" transform="translate(0,0)"></path><path d="" fill="#26EEFF" transform="translate(0,0)"></path><path d="" fill="#53C8FF" transform="translate(0,0)"></path><path d="" fill="#49BCC3" transform="translate(0,0)"></path><path d="" fill="#4BC2EC" transform="translate(0,0)"></path><path d="" fill="#4EC2FA" transform="translate(0,0)"></path><path d="" fill="#6AC3FF" transform="translate(0,0)"></path><path d="" fill="#5FF5FF" transform="translate(0,0)"></path><path d="" fill="#39D0E8" transform="translate(0,0)"></path><path d="" fill="#55BAD1" transform="translate(0,0)"></path><path d="" fill="#6AC8E1" transform="translate(0,0)"></path><path d="" fill="#5BBAFF" transform="translate(0,0)"></path><path d="" fill="#5BA9EC" transform="translate(0,0)"></path><path d="" fill="#38EDF7" transform="translate(0,0)"></path><path d="" fill="#2DEAFF" transform="translate(0,0)"></path><path d="" fill="#3DE3FF" transform="translate(0,0)"></path><path d="" fill="#2BD5E9" transform="translate(0,0)"></path><path d="" fill="#5DD7FF" transform="translate(0,0)"></path><path d="" fill="#36DCED" transform="translate(0,0)"></path><path d="" fill="#77C7FE" transform="translate(0,0)"></path><path d="" fill="#287EBA" transform="translate(0,0)"></path><path d="" fill="#65C7FE" transform="translate(0,0)"></path><path d="" fill="#5FB5E1" transform="translate(0,0)"></path><path d="" fill="#4FB8FF" transform="translate(0,0)"></path><path d="" fill="#3480F6" transform="translate(0,0)"></path><path d="" fill="#6FE7FF" transform="translate(0,0)"></path><path d="" fill="#1F7CD3" transform="translate(0,0)"></path><path d="" fill="#50B6FE" transform="translate(0,0)"></path><path d="" fill="#30DEF1" transform="translate(0,0)"></path><path d="" fill="#73D7FF" transform="translate(0,0)"></path><path d="" fill="#52ABD4" transform="translate(0,0)"></path><path d="" fill="#46B5D4" transform="translate(0,0)"></path><path d="" fill="#0089C1" transform="translate(0,0)"></path><path d="" fill="#4CB2FD" transform="translate(0,0)"></path><path d="" fill="#51B2F1" transform="translate(0,0)"></path><path d="" fill="#49B4FB" transform="translate(0,0)"></path><path d="" fill="#2AE6EB" transform="translate(0,0)"></path><path d="" fill="#1B8AA7" transform="translate(0,0)"></path><path d="" fill="#4FAECE" transform="translate(0,0)"></path><path d="" fill="#5CA8E7" transform="translate(0,0)"></path><path d="" fill="#59A7EA" transform="translate(0,0)"></path><path d="" fill="#5EB7DD" transform="translate(0,0)"></path><path d="" fill="#6BD3F7" transform="translate(0,0)"></path><path d="" fill="#47B6E2" transform="translate(0,0)"></path><path d="" fill="#0DDFEA" transform="translate(0,0)"></path><path d="" fill="#38DAF1" transform="translate(0,0)"></path><path d="" fill="#20E7F1" transform="translate(0,0)"></path><path d="" fill="#0396D2" transform="translate(0,0)"></path><path d="" fill="#1490F8" transform="translate(0,0)"></path><path d="" fill="#0D84B7" transform="translate(0,0)"></path><path d="" fill="#85FFFF" transform="translate(0,0)"></path><path d="" fill="#47DAFD" transform="translate(0,0)"></path><path d="" fill="#11DDEE" transform="translate(0,0)"></path><path d="" fill="#35E6FF" transform="translate(0,0)"></path><path d="" fill="#26F4FF" transform="translate(0,0)"></path><path d="" fill="#44D5F8" transform="translate(0,0)"></path><path d="" fill="#7FFDFF" transform="translate(0,0)"></path><path d="" fill="#47DBF9" transform="translate(0,0)"></path><path d="" fill="#26EEFF" transform="translate(0,0)"></path><path d="" fill="#43D5FC" transform="translate(0,0)"></path><path d="" fill="#57DCF1" transform="translate(0,0)"></path><path d="" fill="#3CD3EB" transform="translate(0,0)"></path><path d="" fill="#66CAF6" transform="translate(0,0)"></path><path d="" fill="#11189E" transform="translate(0,0)"></path><path d="" fill="#28F3FF" transform="translate(0,0)"></path><path d="" fill="#43C2FF" transform="translate(0,0)"></path><path d="" fill="#37E3FF" transform="translate(0,0)"></path><path d="" fill="#21E4FF" transform="translate(0,0)"></path><path d="" fill="#2FDFFF" transform="translate(0,0)"></path><path d="" fill="#25F5FF" transform="translate(0,0)"></path><path d="" fill="#4AC0EE" transform="translate(0,0)"></path><path d="" fill="#32E1F3" transform="translate(0,0)"></path><path d="" fill="#52BFDC" transform="translate(0,0)"></path><path d="" fill="#12D5EA" transform="translate(0,0)"></path><path d="" fill="#3FD4FF" transform="translate(0,0)"></path><path d="" fill="#0386DE" transform="translate(0,0)"></path><path d="" fill="#107ECF" transform="translate(0,0)"></path><path d="" fill="#3FC1F7" transform="translate(0,0)"></path><path d="" fill="#0C7FE8" transform="translate(0,0)"></path><path d="" fill="#3EC0FF" transform="translate(0,0)"></path><path d="" fill="#107FD7" transform="translate(0,0)"></path><path d="" fill="#2BC7FB" transform="translate(0,0)"></path><path d="" fill="#007BDF" transform="translate(0,0)"></path><path d="" fill="#0088D5" transform="translate(0,0)"></path><path d="" fill="#0080DD" transform="translate(0,0)"></path><path d="" fill="#168FE1" transform="translate(0,0)"></path><path d="" fill="#0081E1" transform="translate(0,0)"></path><path d="" fill="#0798D4" transform="translate(0,0)"></path><path d="" fill="#43ABDC" transform="translate(0,0)"></path><path d="" fill="#28E6FF" transform="translate(0,0)"></path><path d="" fill="#43ACD8" transform="translate(0,0)"></path><path d="" fill="#31E2FF" transform="translate(0,0)"></path><path d="" fill="#4FB7E8" transform="translate(0,0)"></path><path d="" fill="#17EDFF" transform="translate(0,0)"></path><path d="" fill="#4FB8E2" transform="translate(0,0)"></path><path d="" fill="#72FFFF" transform="translate(0,0)"></path><path d="" fill="#4FB8D2" transform="translate(0,0)"></path><path d="" fill="#53B8CA" transform="translate(0,0)"></path><path d="" fill="#50B5D7" transform="translate(0,0)"></path><path d="" fill="#53B3E5" transform="translate(0,0)"></path><path d="" fill="#60ABE1" transform="translate(0,0)"></path><path d="" fill="#51AFFF" transform="translate(0,0)"></path><path d="" fill="#61A9EA" transform="translate(0,0)"></path><path d="" fill="#43B8F5" transform="translate(0,0)"></path><path d="" fill="#61ACE3" transform="translate(0,0)"></path><path d="" fill="#58FBFF" transform="translate(0,0)"></path><path d="" fill="#5FAEDD" transform="translate(0,0)"></path><path d="" fill="#39C3D9" transform="translate(0,0)"></path><path d="" fill="#61AFE2" transform="translate(0,0)"></path><path d="" fill="#77F8FF" transform="translate(0,0)"></path><path d="" fill="#5DB0E6" transform="translate(0,0)"></path><path d="" fill="#4DB5F2" transform="translate(0,0)"></path><path d="" fill="#4FB5EE" transform="translate(0,0)"></path><path d="" fill="#2AE0E2" transform="translate(0,0)"></path><path d="" fill="#51B5EA" transform="translate(0,0)"></path><path d="" fill="#29DADC" transform="translate(0,0)"></path><path d="" fill="#2789CA" transform="translate(0,0)"></path><path d="" fill="#59B4F7" transform="translate(0,0)"></path><path d="" fill="#0081E4" transform="translate(0,0)"></path><path d="" fill="#47BFEF" transform="translate(0,0)"></path><path d="" fill="#42B8FF" transform="translate(0,0)"></path><path d="" fill="#37BFFC" transform="translate(0,0)"></path><path d="" fill="#68CBFF" transform="translate(0,0)"></path><path d="" fill="#0005A0" transform="translate(0,0)"></path><path d="" fill="#0885E8" transform="translate(0,0)"></path><path d="" fill="#3FBCEB" transform="translate(0,0)"></path><path d="" fill="#4DB3EE" transform="translate(0,0)"></path><path d="" fill="#001C36" transform="translate(0,0)"></path><path d="" fill="#3CE5F0" transform="translate(0,0)"></path><path d="" fill="#35E5EE" transform="translate(0,0)"></path><path d="" fill="#4EB8D7" transform="translate(0,0)"></path><path d="" fill="#000F2F" transform="translate(0,0)"></path><path d="" fill="#001BA4" transform="translate(0,0)"></path><path d="" fill="#20F5FA" transform="translate(0,0)"></path><path d="" fill="#3085D3" transform="translate(0,0)"></path><path d="" fill="#2ADDFC" transform="translate(0,0)"></path><path d="" fill="#29ECF1" transform="translate(0,0)"></path><path d="" fill="#1897F0" transform="translate(0,0)"></path><path d="" fill="#2BE2E9" transform="translate(0,0)"></path><path d="" fill="#58D2F4" transform="translate(0,0)"></path><path d="" fill="#0023BC" transform="translate(0,0)"></path><path d="" fill="#27EBFF" transform="translate(0,0)"></path><path d="" fill="#11F4FA" transform="translate(0,0)"></path><path d="" fill="#3AE9F9" transform="translate(0,0)"></path><path d="" fill="#000F60" transform="translate(0,0)"></path><path d="" fill="#001829" transform="translate(0,0)"></path><path d="" fill="#65C9D3" transform="translate(0,0)"></path><path d="" fill="#29D8DD" transform="translate(0,0)"></path><path d="" fill="#30E4F0" transform="translate(0,0)"></path><path d="" fill="#31E0F0" transform="translate(0,0)"></path><path d="" fill="#33DCF3" transform="translate(0,0)"></path><path d="" fill="#60CAFF" transform="translate(0,0)"></path><path d="" fill="#00328E" transform="translate(0,0)"></path><path d="" fill="#0016B4" transform="translate(0,0)"></path><path d="" fill="#0013B8" transform="translate(0,0)"></path><path d="" fill="#0011AE" transform="translate(0,0)"></path><path d="" fill="#0013A3" transform="translate(0,0)"></path><path d="" fill="#0877F5" transform="translate(0,0)"></path><path d="" fill="#011CB4" transform="translate(0,0)"></path><path d="" fill="#66C7FF" transform="translate(0,0)"></path><path d="" fill="#001BC1" transform="translate(0,0)"></path><path d="" fill="#0010B5" transform="translate(0,0)"></path><path d="" fill="#0010BC" transform="translate(0,0)"></path><path d="" fill="#0010BA" transform="translate(0,0)"></path><path d="" fill="#0012B6" transform="translate(0,0)"></path><path d="" fill="#2C75F1" transform="translate(0,0)"></path><path d="" fill="#0016B8" transform="translate(0,0)"></path><path d="" fill="#011EBB" transform="translate(0,0)"></path><path d="" fill="#48E4FF" transform="translate(0,0)"></path><path d="" fill="#0015BB" transform="translate(0,0)"></path><path d="" fill="#0016B7" transform="translate(0,0)"></path><path d="" fill="#66BDFF" transform="translate(0,0)"></path><path d="" fill="#65BDFF" transform="translate(0,0)"></path><path d="" fill="#00348F" transform="translate(0,0)"></path><path d="" fill="#3CE0FD" transform="translate(0,0)"></path><path d="" fill="#32E6F7" transform="translate(0,0)"></path><path d="" fill="#0096BA" transform="translate(0,0)"></path><path d="" fill="#2BF0F4" transform="translate(0,0)"></path><path d="" fill="#1EE5E9" transform="translate(0,0)"></path><path d="" fill="#2CDDEF" transform="translate(0,0)"></path><path d="" fill="#0995CA" transform="translate(0,0)"></path><path d="" fill="#2CD8EB" transform="translate(0,0)"></path><path d="" fill="#2AE7E7" transform="translate(0,0)"></path><path d="" fill="#2AE1E8" transform="translate(0,0)"></path><path d="" fill="#44DFFF" transform="translate(0,0)"></path><path d="" fill="#33E2F4" transform="translate(0,0)"></path><path d="" fill="#0083D9" transform="translate(0,0)"></path><path d="" fill="#35E7F6" transform="translate(0,0)"></path><path d="" fill="#30ECFE" transform="translate(0,0)"></path><path d="" fill="#4BCAFF" transform="translate(0,0)"></path><path d="" fill="#34E6FC" transform="translate(0,0)"></path><path d="" fill="#1196D6" transform="translate(0,0)"></path><path d="" fill="#5CC2FF" transform="translate(0,0)"></path><path d="" fill="#33E2FF" transform="translate(0,0)"></path><path d="" fill="#002B94" transform="translate(0,0)"></path><path d="" fill="#021BC2" transform="translate(0,0)"></path><path d="" fill="#13EDFF" transform="translate(0,0)"></path><path d="" fill="#000AB4" transform="translate(0,0)"></path><path d="" fill="#43DBFF" transform="translate(0,0)"></path><path d="" fill="#040EAE" transform="translate(0,0)"></path><path d="" fill="#008AE8" transform="translate(0,0)"></path><path d="" fill="#40DBFF" transform="translate(0,0)"></path><path d="" fill="#3BEBFF" transform="translate(0,0)"></path><path d="" fill="#48D7FF" transform="translate(0,0)"></path><path d="" fill="#4CC8E9" transform="translate(0,0)"></path><path d="" fill="#0089C3" transform="translate(0,0)"></path><path d="" fill="#1FEEFF" transform="translate(0,0)"></path><path d="" fill="#1487B7" transform="translate(0,0)"></path><path d="" fill="#2ADBFD" transform="translate(0,0)"></path><path d="" fill="#61D4FF" transform="translate(0,0)"></path><path d="" fill="#21E7FF" transform="translate(0,0)"></path><path d="" fill="#30DDEC" transform="translate(0,0)"></path><path d="" fill="#3AE3FE" transform="translate(0,0)"></path><path d="" fill="#29F4FF" transform="translate(0,0)"></path><path d="" fill="#002BBE" transform="translate(0,0)"></path><path d="" fill="#55CBEA" transform="translate(0,0)"></path><path d="" fill="#19DFFF" transform="translate(0,0)"></path><path d="" fill="#00EDF8" transform="translate(0,0)"></path><path d="" fill="#2EE6FF" transform="translate(0,0)"></path><path d="" fill="#2EE4E2" transform="translate(0,0)"></path><path d="" fill="#1EE8F8" transform="translate(0,0)"></path><path d="" fill="#32EBF5" transform="translate(0,0)"></path><path d="" fill="#38DEFE" transform="translate(0,0)"></path><path d="" fill="#61C6FF" transform="translate(0,0)"></path><path d="" fill="#26E9FF" transform="translate(0,0)"></path><path d="" fill="#003291" transform="translate(0,0)"></path><path d="" fill="#3FEEFF" transform="translate(0,0)"></path><path d="" fill="#1EEEFF" transform="translate(0,0)"></path><path d="" fill="#46D1DD" transform="translate(0,0)"></path><path d="" fill="#4FD1FF" transform="translate(0,0)"></path><path d="" fill="#28F3FF" transform="translate(0,0)"></path><path d="" fill="#0024C1" transform="translate(0,0)"></path><path d="" fill="#60D8FB" transform="translate(0,0)"></path><path d="" fill="#001A2B" transform="translate(0,0)"></path><path d="" fill="#34DEFD" transform="translate(0,0)"></path><path d="" fill="#42E3FF" transform="translate(0,0)"></path><path d="" fill="#40E5F6" transform="translate(0,0)"></path><path d="" fill="#36D8E1" transform="translate(0,0)"></path><path d="" fill="#2CD7EF" transform="translate(0,0)"></path><path d="" fill="#53B8FF" transform="translate(0,0)"></path><path d="" fill="#47C4E0" transform="translate(0,0)"></path><path d="" fill="#002F8E" transform="translate(0,0)"></path><path d="" fill="#002BCB" transform="translate(0,0)"></path><path d="" fill="#55D9F5" transform="translate(0,0)"></path><path d="" fill="#32E3F4" transform="translate(0,0)"></path><path d="" fill="#25E7FF" transform="translate(0,0)"></path><path d="" fill="#003159" transform="translate(0,0)"></path><path d="" fill="#16D7F5" transform="translate(0,0)"></path><path d="" fill="#2DE6F0" transform="translate(0,0)"></path><path d="" fill="#63C0FF" transform="translate(0,0)"></path><path d="" fill="#28E3E4" transform="translate(0,0)"></path><path d="" fill="#003698" transform="translate(0,0)"></path><path d="" fill="#1DE6FD" transform="translate(0,0)"></path><path d="" fill="#23FAFF" transform="translate(0,0)"></path><path d="" fill="#28DAE7" transform="translate(0,0)"></path><path d="" fill="#26E7EA" transform="translate(0,0)"></path><path d="" fill="#23F0FD" transform="translate(0,0)"></path><path d="" fill="#1AD5E1" transform="translate(0,0)"></path><path d="" fill="#69B8D7" transform="translate(0,0)"></path><path d="" fill="#2BE2F6" transform="translate(0,0)"></path></svg>